<?xml version="1.0" encoding="utf-8"?>
<!-- Generator: Adobe Illustrator 25.4.1, SVG Export Plug-In . SVG Version: 6.00 Build 0)  -->
<svg version="1.1" id="Capa_1" xmlns="http://www.w3.org/2000/svg" xmlns:xlink="http://www.w3.org/1999/xlink" x="0px" y="0px"
	 viewBox="0 0 800 800" style="enable-background:new 0 0 800 800;" xml:space="preserve">
<g>
	<path d="M753.2,529.3c-33.5,12.4-67,31-96.7,50.8c3.7-127.7,3.7-261.7-29.8-385.7c-13.6-49.6-36-119-88-142.6
		c-43.4-18.6-99.2-9.9-130.2,27.3c-43.4,53.3-53.3,121.5-89.3,178.6c-9.9,15.8-19.6,22.6-28.9,22.8c-29.3,0.9-59.9-86-85.2-155.5
		c0,0-12.8-35.3-37.8-50.4c-5.5-3.3-11.3-5.2-11.3-5.2c-8.9-2.8-16.5-2.5-22.8-2c-18.1,1.5-22.5,4.5-42.5,7.4
		c-13.5,2-20.4,2.9-27.5,1.5c-13.7-2.8-20.3-10-23.6-7.4C36.2,71.8,38.9,84,46,92c11.1,12.5,30.4,11.9,41.7,11.5
		c29.2-0.9,37.3-13,56.4-7.1c12,3.7,19.4,11.7,22.4,15c14.8,16,15.3,36.9,17.4,44.6c14.9,55.8,27.3,106.6,75.6,143.9
		c81.8,63.2,122.8-119,146.3-161.2c27.3-48.4,89.3-95.5,138.9-43.4c40.9,43.4,54.6,107.9,64.5,164.9
		c18.6,105.4,16.1,212.1,18.6,318.7c-17.4-17.4-34.7-32.2-49.6-50.8c-9.9-12.4-28.5,1.2-24.8,14.9c21.1,73.2,65.7,136.4,95.5,205.9
		c5,12.4,23.6,7.4,27.3-3.7c21.1-69.4,65.7-126.5,93-192.2C774.2,542.9,766.8,525.5,753.2,529.3z M352.6,696.3"/>
</g>
</svg>
