<svg width="14" height="14" viewBox="0 0 14 14" fill="none" xmlns="http://www.w3.org/2000/svg">
	<g clip-path="url(#clip0_186_36)">
		<path d="M7 0.291748C3.1325 0.291748 0 3.37175 0 7.17041C0 10.2102 2.0055 12.7879 4.78625 13.6967C5.13625 13.7615 5.26458 13.5486 5.26458 13.366C5.26458 13.2027 5.25875 12.7698 5.25583 12.1964C3.30867 12.6112 2.898 11.2736 2.898 11.2736C2.5795 10.4797 2.11925 10.2673 2.11925 10.2673C1.48517 9.84092 2.16825 9.84967 2.16825 9.84967C2.87117 9.8975 3.24042 10.5584 3.24042 10.5584C3.86458 11.6102 4.879 11.3062 5.27917 11.1307C5.34217 10.6856 5.52242 10.3828 5.7225 10.2107C4.16792 10.0387 2.534 9.44717 2.534 6.81167C2.534 6.06091 2.80525 5.44725 3.25442 4.966C3.17567 4.79216 2.93942 4.09275 3.31567 3.14542C3.31567 3.14542 3.90192 2.96108 5.24067 3.85066C5.80067 3.69783 6.39567 3.622 6.99067 3.6185C7.58567 3.622 8.18067 3.69783 8.74067 3.85066C10.0707 2.96108 10.6569 3.14542 10.6569 3.14542C11.0332 4.09275 10.7969 4.79216 10.7269 4.966C11.1732 5.44725 11.4444 6.06091 11.4444 6.81167C11.4444 9.45417 9.80817 10.0357 8.25067 10.2049C8.49567 10.4114 8.72317 10.8332 8.72317 11.4777C8.72317 12.3982 8.71442 13.1379 8.71442 13.3613C8.71442 13.5416 8.83692 13.7568 9.19567 13.688C11.9962 12.785 14 10.2055 14 7.17041C14 3.37175 10.8657 0.291748 7 0.291748Z" fill="#3685ea" />
	</g>
	<defs>
		<clipPath id="clip0_186_36">
			<rect width="14" height="14" fill="white" />
		</clipPath>
	</defs>
</svg>
