<?xml version="1.0" standalone="no"?>
<!DOCTYPE svg PUBLIC "-//W3C//DTD SVG 20010904//EN"
 "http://www.w3.org/TR/2001/REC-SVG-20010904/DTD/svg10.dtd">
<svg version="1.0" xmlns="http://www.w3.org/2000/svg"
 width="220.000000pt" height="220.000000pt" viewBox="0 0 220.000000 220.000000"
 preserveAspectRatio="xMidYMid meet">

<g transform="translate(0.000000,220.000000) scale(0.100000,-0.100000)"
fill="#3685ea" stroke="none">
<path d="M1099 1864 c-13 -7 -32 -13 -41 -14 -10 0 -18 -4 -18 -9 0 -5 -9 -12
-19 -16 -11 -3 -34 -19 -53 -35 -18 -16 -39 -30 -45 -30 -7 0 -13 -4 -13 -9 0
-5 -8 -12 -17 -16 -10 -3 -43 -28 -73 -55 -30 -28 -59 -50 -63 -50 -5 0 -23
-10 -40 -22 -41 -30 -100 -58 -109 -52 -5 3 -8 1 -8 -5 0 -5 -19 -19 -42 -31
-24 -11 -50 -25 -58 -29 -8 -5 -31 -16 -50 -25 -19 -9 -42 -20 -50 -26 -8 -5
-40 -21 -70 -35 -85 -40 -133 -66 -128 -71 3 -2 22 5 44 15 21 11 44 16 49 11
6 -4 19 -4 30 1 29 11 51 11 39 -1 -5 -5 -36 -15 -69 -23 -32 -7 -61 -19 -63
-27 -4 -10 3 -11 27 -7 45 9 30 -8 -24 -29 -25 -9 -45 -21 -45 -26 0 -5 9 -4
21 3 20 10 105 6 117 -6 3 -3 -12 -5 -34 -6 l-39 -1 35 -15 c23 -10 36 -11 38
-4 5 15 23 14 19 -1 -1 -6 7 -13 18 -15 17 -3 18 -2 5 7 -13 10 -13 11 0 7 8
-2 14 -11 14 -20 -1 -12 4 -13 27 -7 17 5 29 5 29 -1 0 -5 8 -9 18 -9 9 0 41
-9 70 -20 59 -23 72 -24 72 -10 0 6 -6 10 -12 9 -7 -1 -26 3 -41 9 -16 7 -36
13 -45 13 -9 1 -1 5 18 9 l35 7 -35 2 c-19 1 -57 8 -85 16 l-50 14 48 0 c26 1
47 -3 47 -9 0 -5 7 -7 15 -4 22 9 86 -15 78 -29 -5 -9 -3 -9 8 0 16 13 59 7
59 -9 0 -5 6 -8 12 -6 12 4 110 -26 179 -56 20 -8 39 -13 42 -10 8 9 77 -16
77 -27 0 -6 -5 -7 -12 -3 -7 4 -8 3 -4 -4 4 -7 25 -15 47 -18 38 -6 57 -19 46
-31 -8 -7 -107 19 -107 29 0 4 -7 5 -16 1 -12 -4 -3 -11 29 -23 62 -24 111
-33 186 -35 57 -2 62 -1 41 10 -23 12 -23 13 11 18 77 11 166 50 202 88 10 11
22 17 28 14 5 -4 9 1 9 10 0 9 4 14 9 11 10 -6 67 20 94 42 9 8 17 11 17 6 0
-5 7 2 16 14 8 12 21 22 28 22 7 0 25 9 40 21 14 11 30 17 36 14 6 -4 9 -1 8
7 -2 7 3 12 11 10 9 -2 11 3 7 13 -4 12 -1 15 12 11 11 -3 33 9 61 35 24 21
40 39 35 39 -5 0 -22 -12 -37 -26 -16 -14 -30 -24 -33 -22 -2 3 7 15 21 28 14
13 25 29 25 36 0 6 7 14 15 18 17 6 21 -9 5 -17 -6 -3 -5 -4 2 -3 7 1 14 12
16 23 3 20 92 78 106 68 3 -3 4 -2 2 1 -3 3 16 26 41 50 26 24 44 46 41 49 -2
3 -13 -4 -23 -15 -10 -11 -24 -20 -32 -20 -8 0 -11 -5 -7 -11 7 -13 -13 -29
-36 -28 -8 0 -5 4 8 10 13 5 21 13 17 18 -3 5 5 17 17 25 12 9 18 16 13 16
-16 -1 -45 -26 -45 -39 0 -6 -6 -11 -13 -11 -8 0 -22 -9 -33 -21 -18 -20 -65
-49 -80 -49 -3 0 17 18 46 39 49 37 86 78 78 86 -2 2 -30 -21 -63 -51 -33 -30
-66 -59 -73 -65 -7 -5 -10 -15 -6 -21 4 -6 -2 -6 -15 1 -16 9 -21 9 -19 0 2
-6 -7 -13 -20 -14 -28 -2 -24 14 10 35 60 37 105 71 138 105 19 20 45 45 58
57 12 12 22 28 22 35 0 7 5 13 12 13 6 0 8 3 5 6 -9 9 -92 -24 -107 -42 -7 -7
-18 -14 -24 -14 -6 1 9 19 34 42 44 39 44 40 10 22 -19 -11 -39 -25 -43 -31
-4 -7 -13 -13 -19 -13 -9 0 -9 3 0 12 7 7 12 15 12 19 0 14 -55 -2 -67 -18 -7
-9 -13 -14 -13 -10 0 4 -11 0 -25 -9 -14 -9 -29 -14 -32 -10 -4 4 3 9 16 13
17 4 19 8 9 14 -9 6 -7 9 10 9 12 0 25 7 29 15 9 25 -4 29 -33 10 -25 -16 -27
-16 -21 -1 6 14 3 16 -16 11 -12 -4 -35 -13 -51 -21 -39 -19 -46 -17 -19 5
l23 19 -23 0 c-45 0 -121 25 -217 71 -25 11 -54 21 -65 21 -11 0 -31 7 -43 16
-12 8 -22 10 -22 5 0 -6 -7 -11 -16 -11 -11 0 -14 5 -10 16 5 13 1 15 -19 10
-16 -4 -24 -2 -23 4 2 6 -11 17 -28 24 -25 11 -35 11 -55 0z m31 -14 c0 -5 -4
-10 -9 -10 -6 0 -13 5 -16 10 -3 6 1 10 9 10 9 0 16 -4 16 -10z m350 -140 c0
-5 -2 -10 -4 -10 -3 0 -8 5 -11 10 -3 6 -1 10 4 10 6 0 11 -4 11 -10z m88 -26
c-9 -9 -22 -11 -43 -6 -27 8 -28 9 -11 19 10 5 29 8 43 5 21 -4 22 -7 11 -18z
m-13 -54 c-3 -5 -11 -10 -16 -10 -6 0 -7 5 -4 10 3 6 11 10 16 10 6 0 7 -4 4
-10z m-775 -55 c-24 -20 -45 -33 -48 -30 -3 3 -3 6 -1 8 2 2 19 15 37 30 19
15 38 27 44 27 5 0 -9 -16 -32 -35z m400 25 c0 -5 -5 -10 -11 -10 -5 0 -7 5
-4 10 3 6 8 10 11 10 2 0 4 -4 4 -10z m-320 -21 c-7 -11 -14 -18 -17 -15 -3 3
0 12 7 21 18 21 23 19 10 -6z m-145 -39 c-4 -6 -25 -18 -48 -27 -22 -9 -35
-19 -29 -21 7 -2 10 -8 6 -13 -9 -15 -20 -10 -21 11 -1 11 3 20 8 20 6 0 26
11 46 25 37 24 51 26 38 5z m-113 -77 c-6 -2 -10 -9 -6 -14 3 -5 1 -9 -5 -9
-5 0 -18 -3 -28 -6 -14 -4 -13 -1 6 15 13 12 28 21 35 20 7 0 6 -2 -2 -6z
m388 -7 c0 -3 -4 -8 -10 -11 -5 -3 -10 -1 -10 4 0 6 5 11 10 11 6 0 10 -2 10
-4z m-51 -32 c-6 -8 -15 -12 -18 -8 -3 4 0 9 7 11 6 3 9 10 6 15 -4 7 -2 8 5
4 9 -6 9 -11 0 -22z m-432 -11 c-9 -9 -20 -13 -24 -9 -4 4 -1 11 7 16 25 16
35 11 17 -7z m1167 8 c3 -5 -1 -11 -9 -14 -9 -4 -12 -1 -8 9 6 16 10 17 17 5z
m-1223 -31 c-13 -11 -30 -20 -38 -20 -8 0 -11 -4 -8 -10 3 -6 -1 -7 -10 -4
-20 8 -15 13 33 35 48 23 52 22 23 -1z m1183 8 c-7 -17 -94 -80 -94 -69 0 5
-10 12 -22 14 -21 5 -21 5 2 5 41 0 46 2 30 13 -13 9 -13 10 0 8 21 -3 70 19
70 31 0 5 4 10 10 10 5 0 7 -6 4 -12z m-757 -34 c-3 -3 -12 -4 -19 -1 -8 3 -5
6 6 6 11 1 17 -2 13 -5z m573 -44 c0 -5 -5 -10 -11 -10 -5 0 -7 5 -4 10 3 6 8
10 11 10 2 0 4 -4 4 -10z m80 6 c0 -3 -4 -8 -10 -11 -5 -3 -10 -1 -10 4 0 6 5
11 10 11 6 0 10 -2 10 -4z m-30 -21 c0 -8 -7 -15 -15 -15 -26 0 -18 20 13 29
1 1 2 -6 2 -14z m-30 -29 c0 -2 -7 -7 -16 -10 -8 -3 -12 -2 -9 4 6 10 25 14
25 6z m-130 -80 c0 -3 -4 -8 -10 -11 -5 -3 -10 -1 -10 4 0 6 5 11 10 11 6 0
10 -2 10 -4z m110 -20 c0 -2 -9 -6 -20 -9 -11 -3 -18 -1 -14 4 5 9 34 13 34 5z
m-195 -16 c-3 -5 -11 -10 -16 -10 -6 0 -7 5 -4 10 3 6 11 10 16 10 6 0 7 -4 4
-10z m25 -40 c0 -5 -4 -10 -10 -10 -5 0 -10 5 -10 10 0 6 5 10 10 10 6 0 10
-4 10 -10z m-43 -28 c-10 -10 -17 -24 -17 -30 0 -7 -4 -12 -10 -12 -5 0 -10 4
-10 9 0 5 -10 7 -22 4 -22 -6 -22 -5 2 14 42 34 83 44 57 15z m-227 -21 c0 -8
-6 -11 -16 -7 -9 3 -20 6 -25 6 -5 0 -9 3 -9 8 0 4 11 7 25 7 14 0 25 -6 25
-14z m110 -37 c0 -8 -4 -12 -10 -9 -5 3 -10 10 -10 16 0 5 5 9 10 9 6 0 10 -7
10 -16z"/>
<path d="M1960 1701 c0 -6 4 -13 10 -16 6 -3 7 1 4 9 -7 18 -14 21 -14 7z"/>
<path d="M1935 1630 c-3 -6 1 -7 9 -4 18 7 21 14 7 14 -6 0 -13 -4 -16 -10z"/>
<path d="M1910 1599 c0 -5 5 -7 10 -4 6 3 10 8 10 11 0 2 -4 4 -10 4 -5 0 -10
-5 -10 -11z"/>
<path d="M1849 1443 c-13 -16 -12 -17 4 -4 9 7 17 15 17 17 0 8 -8 3 -21 -13z"/>
<path d="M655 1160 c-4 -6 3 -10 14 -10 25 0 27 6 6 13 -8 4 -17 2 -20 -3z"/>
<path d="M618 1133 c7 -3 16 -2 19 1 4 3 -2 6 -13 5 -11 0 -14 -3 -6 -6z"/>
<path d="M808 1073 c7 -3 16 -2 19 1 4 3 -2 6 -13 5 -11 0 -14 -3 -6 -6z"/>
<path d="M1840 1065 c-10 -12 -10 -15 4 -15 9 0 16 7 16 15 0 8 -2 15 -4 15
-2 0 -9 -7 -16 -15z"/>
<path d="M1597 1029 c-51 -41 -54 -48 -9 -25 29 15 81 66 66 65 -5 0 -31 -18
-57 -40z"/>
<path d="M1743 1032 c-38 -38 -85 -72 -100 -72 -4 0 -1 5 7 10 13 8 12 10 -2
10 -10 0 -18 -4 -18 -9 0 -8 -81 -51 -95 -51 -3 0 -4 6 -2 13 1 6 -4 11 -12 9
-9 -2 -11 3 -7 14 5 14 4 15 -9 4 -9 -7 -18 -11 -21 -8 -2 3 18 23 46 44 59
45 64 54 13 24 -172 -102 -280 -160 -299 -160 -2 0 -4 5 -4 10 0 6 6 10 13 10
20 0 104 48 168 96 59 45 83 73 32 36 -16 -11 -74 -43 -131 -71 -56 -29 -100
-55 -98 -59 2 -4 -17 -7 -44 -7 -38 0 -46 -3 -42 -15 4 -12 2 -13 -9 -2 -7 6
-25 12 -39 12 -14 0 -31 5 -38 12 -7 7 -12 9 -12 5 0 -4 -16 0 -36 8 -20 8
-47 15 -60 15 -12 0 -25 4 -28 9 -3 4 -17 6 -31 3 -15 -2 -25 0 -25 7 0 6 -11
11 -25 11 -14 0 -25 4 -25 9 0 5 -24 14 -52 21 -29 7 -64 19 -77 27 -28 18
-109 27 -125 14 -6 -5 -26 -12 -44 -16 -17 -3 -32 -11 -32 -15 0 -5 -18 -14
-40 -20 -22 -6 -40 -15 -40 -20 0 -6 -10 -10 -22 -10 -13 0 -41 -12 -63 -26
-35 -22 -37 -25 -12 -19 15 3 27 1 27 -4 0 -5 11 -12 25 -15 49 -12 24 -22
-57 -23 -51 0 -83 -4 -86 -11 -2 -6 -19 -16 -38 -22 -19 -6 -34 -15 -34 -20 0
-7 262 -140 278 -140 4 0 30 -12 57 -25 83 -43 281 -99 423 -120 23 -4 55 -13
71 -21 27 -14 68 -21 126 -24 25 -1 27 -3 10 -9 -11 -4 -54 -4 -95 1 -41 4
-102 11 -135 14 -33 3 -62 9 -65 14 -3 4 -25 12 -50 18 -25 6 -69 17 -98 25
-29 8 -50 11 -45 7 26 -24 308 -106 296 -86 -4 6 1 5 10 -3 9 -7 14 -17 11
-22 -3 -5 3 -6 12 -2 11 4 15 3 11 -4 -10 -16 120 -53 191 -55 51 -1 71 4 143
40 46 23 95 51 109 62 16 14 4 10 -35 -11 -33 -17 -64 -35 -69 -40 -6 -5 -17
-9 -25 -9 -14 1 -13 3 1 14 10 7 14 17 10 21 -4 5 -1 5 5 1 14 -8 34 1 106 47
57 37 61 44 7 17 -22 -11 -40 -16 -40 -10 0 5 5 10 11 10 5 0 7 5 3 12 -5 7
-3 8 5 3 7 -4 22 1 34 12 37 31 86 63 97 63 6 0 9 4 5 9 -3 6 10 13 30 17 19
3 35 12 35 19 0 15 61 63 110 87 19 10 29 17 22 18 -14 0 -45 -16 -81 -42 -13
-10 -31 -18 -40 -18 -11 1 -8 5 9 15 14 8 20 14 14 15 -30 1 17 80 47 80 5 0
9 5 9 10 0 10 -38 -7 -50 -21 -3 -3 -36 -21 -75 -38 -38 -18 -72 -36 -75 -40
-8 -12 -162 -93 -167 -88 -2 3 22 20 54 38 50 28 145 89 217 139 64 45 84 64
79 76 -3 8 0 14 7 14 6 0 8 -4 5 -10 -11 -18 11 -10 57 20 25 17 48 39 51 50
3 11 10 20 17 20 6 0 8 -5 4 -12 -6 -9 -3 -9 9 0 9 8 15 19 14 25 -1 7 7 12
18 12 13 0 19 7 19 23 0 12 -2 21 -5 20 -3 -2 -13 5 -23 15 -15 15 -20 15 -30
4 -6 -7 -20 -20 -31 -27 -17 -13 -16 -11 4 18 30 43 20 41 -26 -6z m-344 -129
c0 -11 -3 -13 -6 -5 -2 6 -10 9 -15 6 -7 -4 -8 -2 -4 4 11 18 26 14 25 -5z
m121 7 c0 -5 -5 -10 -11 -10 -5 0 -7 5 -4 10 3 6 8 10 11 10 2 0 4 -4 4 -10z
m-30 -20 c0 -5 -8 -10 -17 -10 -15 0 -16 2 -3 10 19 12 20 12 20 0z m-275 -40
c-27 -12 -35 -12 -35 0 0 6 12 10 28 9 24 0 25 -1 7 -9z m75 6 c0 -2 -7 -7
-16 -10 -8 -3 -12 -2 -9 4 6 10 25 14 25 6z m320 -16 c-34 -26 -102 -62 -107
-56 -5 5 107 74 122 75 6 0 -1 -8 -15 -19z m-442 -7 c-3 -17 -48 -27 -48 -10
0 5 9 7 21 4 15 -4 19 -2 15 9 -3 8 -1 14 5 14 6 0 9 -8 7 -17z m-418 -124 c0
-7 11 -8 30 -4 16 4 35 3 42 -2 21 -13 140 -42 176 -42 31 -1 31 -2 15 -19
-10 -10 -31 -18 -48 -19 -24 -2 -26 0 -10 6 16 7 13 9 -20 17 -22 4 -47 9 -55
9 -8 1 -25 6 -37 13 -12 7 -29 12 -37 12 -9 0 -16 6 -16 13 0 9 -2 9 -8 -1 -5
-7 -16 -10 -25 -7 -18 7 -31 35 -17 35 6 0 10 -5 10 -11z m820 -19 c0 -5 -4
-10 -10 -10 -5 0 -10 5 -10 10 0 6 5 10 10 10 6 0 10 -4 10 -10z m-16 -32 c-7
-11 -34 -10 -34 1 0 6 9 9 19 8 11 0 17 -5 15 -9z m-499 -28 c-33 -22 -45 -25
-45 -12 0 11 39 30 60 31 8 1 2 -8 -15 -19z m450 10 c-3 -5 -11 -10 -16 -10
-6 0 -7 5 -4 10 3 6 11 10 16 10 6 0 7 -4 4 -10z m-330 -160 c3 -5 1 -10 -4
-10 -6 0 -11 5 -11 10 0 6 2 10 4 10 3 0 8 -4 11 -10z m-25 -10 c0 -5 -5 -10
-11 -10 -5 0 -7 5 -4 10 3 6 8 10 11 10 2 0 4 -4 4 -10z"/>
<path d="M1537 965 c-4 -8 -2 -17 3 -20 12 -7 54 14 46 23 -4 3 -12 0 -18 -6
-17 -17 -33 -15 -18 3 7 9 8 15 2 15 -5 0 -12 -7 -15 -15z"/>
<path d="M1676 781 c-12 -5 -15 -10 -9 -14 6 -4 16 0 23 8 14 17 13 17 -14 6z"/>
<path d="M1633 750 c-13 -5 -23 -12 -23 -15 0 -9 16 -5 36 10 22 16 19 18 -13
5z"/>
<path d="M208 693 c7 -3 16 -2 19 1 4 3 -2 6 -13 5 -11 0 -14 -3 -6 -6z"/>
<path d="M531 546 c2 -2 18 -6 34 -10 22 -5 26 -4 15 4 -14 9 -59 15 -49 6z"/>
</g>
</svg>
